<svg width="20" height="20" viewBox="0 0 20 20" fill="none" xmlns="http://www.w3.org/2000/svg">
<path d="M3.58308 15.2125C3.25047 15.5451 3.25047 16.0844 3.58308 16.417C3.9157 16.7496 4.45497 16.7496 4.78758 16.417L10.0001 11.2045L15.2126 16.4171C15.5452 16.7497 16.0845 16.7497 16.4171 16.4171C16.7497 16.0845 16.7497 15.5452 16.4171 15.2126L11.2045 10L16.4172 4.78733C16.7499 4.45472 16.7499 3.91545 16.4172 3.58283C16.0846 3.25022 15.5454 3.25022 15.2127 3.58283L10.0001 8.79553L4.78745 3.58293C4.45484 3.25032 3.91557 3.25032 3.58296 3.58293C3.25034 3.91554 3.25034 4.45481 3.58296 4.78743L8.79555 10L3.58308 15.2125Z" fill="white"/>
</svg>
