<svg width="49" height="48" viewBox="0 0 49 48" fill="none" xmlns="http://www.w3.org/2000/svg">
<path fill-rule="evenodd" clip-rule="evenodd" d="M21.2327 27.2682C20.9388 26.9744 20.4625 26.9744 20.1686 27.2682L14.0048 33.4321L14.0048 29.2672C14.0048 28.8517 13.6679 28.5148 13.2524 28.5148C12.8369 28.5148 12.5 28.8517 12.5 29.2672L12.5 35.2485C12.5 35.664 12.8369 36.0009 13.2524 36.0009L19.2336 36.0009C19.6492 36.0009 19.986 35.664 19.986 35.2485C19.986 34.833 19.6492 34.4961 19.2336 34.4961L15.0688 34.4961L21.2327 28.3323C21.5265 28.0384 21.5265 27.562 21.2327 27.2682Z" fill="white"/>
<path fill-rule="evenodd" clip-rule="evenodd" d="M27.7673 20.732C28.0612 21.0258 28.5375 21.0258 28.8314 20.732L34.9952 14.5682L34.9952 18.733C34.9952 19.1486 35.3321 19.4854 35.7476 19.4854C36.1631 19.4854 36.5 19.1486 36.5 18.733L36.5 12.7517C36.5 12.3362 36.1631 11.9994 35.7476 11.9994L29.7664 11.9994C29.3508 11.9994 29.014 12.3362 29.014 12.7517C29.014 13.1673 29.3508 13.5041 29.7664 13.5041L33.9312 13.5041L27.7673 19.668C27.4735 19.9618 27.4735 20.4382 27.7673 20.732Z" fill="white"/>
</svg>
