<svg width="60" height="60" viewBox="0 0 60 60" fill="none" xmlns="http://www.w3.org/2000/svg">
<circle cx="30" cy="30" r="30" fill="#E1E1E8"/>
<path d="M21 20C25.4183 20 29 24.4772 29 30C29 35.5228 25.4183 40 21 40C16.5817 40 13 35.5228 13 30C13 24.4772 16.5817 20 21 20Z" fill="white" stroke="#A9ABB8" stroke-width="2" stroke-miterlimit="10"/>
<path d="M17.5 24C19.9853 24 22 26.6863 22 30C22 33.3137 19.9853 36 17.5 36C15.0147 36 13 33.3137 13 30C13 26.6863 15.0147 24 17.5 24Z" fill="#A9ABB8"/>
<path d="M37.5 20C42.1944 20 46 24.4772 46 30C46 35.5228 42.1944 40 37.5 40C32.8056 40 29 35.5228 29 30C29 24.4772 32.8056 20 37.5 20Z" fill="white" stroke="#A9ABB8" stroke-width="2" stroke-miterlimit="10"/>
<path d="M33.5 24C35.9853 24 38 26.6863 38 30C38 33.3137 35.9853 36 33.5 36C31.0147 36 29 33.3137 29 30C29 26.6863 31.0147 24 33.5 24Z" fill="#A9ABB8"/>
</svg>
