<svg width="40" height="40" viewBox="0 0 40 40" fill="none" xmlns="http://www.w3.org/2000/svg">
<rect width="40" height="40" rx="20" fill="white"/>
<g clip-path="url(#clip0_1539_4122)">
<path d="M24.397 29.2254L21.1966 34.3563C20.5986 35.3143 19.2002 35.3047 18.6151 34.3386L15.4822 29.166C15.217 28.7287 14.7492 28.4539 14.2381 28.4362L8.19419 28.2304C7.06578 28.1919 6.37459 26.9767 6.91789 25.9865L9.83054 20.6868C10.0765 20.2383 10.0813 19.6966 9.84018 19.245L6.99826 13.9099C6.46782 12.9133 7.17508 11.7062 8.30349 11.6837L14.349 11.5567C14.8602 11.5454 15.3311 11.2786 15.6028 10.8446L18.8032 5.7137C19.4011 4.75568 20.7996 4.76532 21.3847 5.73138L24.5175 10.9041C24.7828 11.3413 25.2505 11.6161 25.7617 11.6338L31.8056 11.8396C32.934 11.8782 33.6252 13.0934 33.0819 14.0835L30.1692 19.3832C29.9233 19.8317 29.9185 20.3734 30.1596 20.8251L33.0031 26.1617C33.5336 27.1583 32.8263 28.3655 31.6979 28.388L25.6524 28.515C25.1412 28.5262 24.6702 28.793 24.3986 29.227L24.397 29.2254Z" fill="#8662F3"/>
<path d="M15.4872 19.7045C16.3013 19.7045 16.9612 18.905 16.9612 17.9187C16.9612 16.9324 16.3013 16.1328 15.4872 16.1328C14.6731 16.1328 14.0132 16.9324 14.0132 17.9187C14.0132 18.905 14.6731 19.7045 15.4872 19.7045Z" fill="white" stroke="black" stroke-width="0.160742" stroke-miterlimit="10"/>
<path d="M14.8474 18.9281C15.3082 18.9281 15.6817 18.4761 15.6817 17.9186C15.6817 17.3611 15.3082 16.9092 14.8474 16.9092C14.3867 16.9092 14.0132 17.3611 14.0132 17.9186C14.0132 18.4761 14.3867 18.9281 14.8474 18.9281Z" fill="#1F1E12"/>
<path d="M18.4369 19.7045C19.251 19.7045 19.9109 18.905 19.9109 17.9187C19.9109 16.9324 19.251 16.1328 18.4369 16.1328C17.6228 16.1328 16.9629 16.9324 16.9629 17.9187C16.9629 18.905 17.6228 19.7045 18.4369 19.7045Z" fill="white" stroke="black" stroke-width="0.160742" stroke-miterlimit="10"/>
<path d="M17.7971 18.9281C18.2579 18.9281 18.6314 18.4761 18.6314 17.9186C18.6314 17.3611 18.2579 16.9092 17.7971 16.9092C17.3364 16.9092 16.9629 17.3611 16.9629 17.9186C16.9629 18.4761 17.3364 18.9281 17.7971 18.9281Z" fill="#1F1E12"/>
</g>
<defs>
<clipPath id="clip0_1539_4122">
<rect width="26.5401" height="30.07" fill="white" transform="translate(6.72998 5)"/>
</clipPath>
</defs>
</svg>
