<svg width="20" height="20" viewBox="0 0 20 20" fill="none" xmlns="http://www.w3.org/2000/svg">
<path d="M9.5 10.3333C9.5 9.8731 9.8731 9.5 10.3333 9.5C10.7936 9.5 11.1667 9.8731 11.1667 10.3333V14.5H9.5V10.3333Z" fill="#858899"/>
<path d="M10.3333 6.16667C9.8731 6.16667 9.5 6.53976 9.5 7C9.5 7.46024 9.8731 7.83333 10.3333 7.83333C10.7936 7.83333 11.1667 7.46024 11.1667 7C11.1667 6.53976 10.7936 6.16667 10.3333 6.16667Z" fill="#858899"/>
<path fill-rule="evenodd" clip-rule="evenodd" d="M10.3333 18.6667C14.9357 18.6667 18.6667 14.9357 18.6667 10.3333C18.6667 5.73096 14.9357 2 10.3333 2C5.73096 2 2 5.73096 2 10.3333C2 14.9357 5.73096 18.6667 10.3333 18.6667ZM10.3333 17C14.0152 17 17 14.0152 17 10.3333C17 6.65143 14.0152 3.66667 10.3333 3.66667C6.65143 3.66667 3.66667 6.65143 3.66667 10.3333C3.66667 14.0152 6.65143 17 10.3333 17Z" fill="#858899"/>
</svg>
