<svg width="20" height="20" viewBox="0 0 20 20" fill="none" xmlns="http://www.w3.org/2000/svg">
<path d="M10.3333 7.83333C9.8731 7.83333 9.5 8.20643 9.5 8.66667H7.83333C7.83333 7.28595 8.95262 6.16667 10.3333 6.16667C11.714 6.16667 12.8333 7.28595 12.8333 8.66667C12.8333 9.75518 12.1377 10.6812 11.1667 11.0244V12H9.5V10.3333C9.5 9.8731 9.8731 9.5 10.3333 9.5C10.7936 9.5 11.1667 9.1269 11.1667 8.66667C11.1667 8.20643 10.7936 7.83333 10.3333 7.83333Z" fill="#F7737C"/>
<path d="M10.3333 12.8333C9.8731 12.8333 9.5 13.2064 9.5 13.6667C9.5 14.1269 9.8731 14.5 10.3333 14.5C10.7936 14.5 11.1667 14.1269 11.1667 13.6667C11.1667 13.2064 10.7936 12.8333 10.3333 12.8333Z" fill="#F7737C"/>
<path fill-rule="evenodd" clip-rule="evenodd" d="M10.3333 18.6667C14.9357 18.6667 18.6667 14.9357 18.6667 10.3333C18.6667 5.73096 14.9357 2 10.3333 2C5.73096 2 2 5.73096 2 10.3333C2 14.9357 5.73096 18.6667 10.3333 18.6667ZM10.3333 17C14.0152 17 17 14.0152 17 10.3333C17 6.65143 14.0152 3.66667 10.3333 3.66667C6.65143 3.66667 3.66667 6.65143 3.66667 10.3333C3.66667 14.0152 6.65143 17 10.3333 17Z" fill="#F7737C"/>
</svg>
