<svg width="350" height="539" viewBox="0 0 350 539" fill="none" xmlns="http://www.w3.org/2000/svg">
<rect width="350" height="538.462" fill="black"/>
<path d="M350 0H0V525.879H350V0Z" fill="black"/>
<path d="M333.096 250.049H16.9037V479.078H333.096V250.049Z" fill="white"/>
<path d="M333.096 10.277H16.9037V239.306H333.096V10.277Z" fill="white"/>
<mask id="mask0_499_7223" style="mask-type:luminance" maskUnits="userSpaceOnUse" x="16" y="10" width="318" height="230">
<path d="M333.096 10.277H16.9037V239.306H333.096V10.277Z" fill="white"/>
</mask>
<g mask="url(#mask0_499_7223)">
<path d="M106.559 22.8334C106.559 22.8334 137.434 1.93748 143.33 11.0062C149.225 20.0749 138.092 27.539 138.092 27.539C138.092 27.539 120.406 25.5288 110.67 36.6077C100.934 47.6867 106.568 22.8424 106.568 22.8424L106.559 22.8334Z" fill="black"/>
<path d="M112.582 36.0576L107.128 37.7523C107.128 37.7523 106.407 51.4996 107.922 57.296C109.436 63.0925 98.4383 63.444 96.2568 49.5254C96.2568 49.5254 84.7541 62.4885 75.4871 59.6669C66.211 56.8453 77.272 46.5867 86.2235 44.2338C86.2235 44.2338 72.954 34.9668 92.3174 24.4017C92.3174 24.4017 95.9773 22.761 99.3218 22.6709L105.055 19.2723C105.055 19.2723 111.852 30.1169 112.591 36.0576H112.582Z" fill="white" stroke="black" stroke-width="2" stroke-miterlimit="10"/>
<path d="M183.22 208.32C183.22 208.32 154.202 207.324 145.473 221.037C136.745 234.751 168.589 237.75 168.589 237.75L183.22 208.32Z" fill="black"/>
<path d="M290.169 216.636C290.169 216.636 294.698 224.689 305.782 224.689C316.865 224.689 321.394 216.636 321.394 216.636L376.867 127.491C380.31 121.958 376.329 114.793 369.809 114.793H241.754C235.235 114.793 231.253 121.958 234.697 127.491L290.169 216.636Z" fill="#FF6840"/>
<path d="M321.959 165.046C330.379 165.046 337.204 156.78 337.204 146.582C337.204 136.385 330.379 128.118 321.959 128.118C313.54 128.118 306.714 136.385 306.714 146.582C306.714 156.78 313.54 165.046 321.959 165.046Z" fill="white" stroke="black" stroke-width="2" stroke-miterlimit="10"/>
<path d="M315.332 157.029C320.096 157.029 323.959 152.352 323.959 146.582C323.959 140.813 320.096 136.135 315.332 136.135C310.568 136.135 306.705 140.813 306.705 146.582C306.705 152.352 310.568 157.029 315.332 157.029Z" fill="black"/>
<path d="M289.596 165.046C298.015 165.046 304.84 156.78 304.84 146.582C304.84 136.385 298.015 128.118 289.596 128.118C281.176 128.118 274.351 136.385 274.351 146.582C274.351 156.78 281.176 165.046 289.596 165.046Z" fill="white" stroke="black" stroke-width="2" stroke-miterlimit="10"/>
<path d="M296.222 157.029C300.987 157.029 304.849 152.352 304.849 146.582C304.849 140.813 300.987 136.135 296.222 136.135C291.458 136.135 287.596 140.813 287.596 146.582C287.596 152.352 291.458 157.029 296.222 157.029Z" fill="black"/>
<path d="M163.235 9.57724C163.235 9.57724 158.688 1.48859 147.56 1.48859C136.431 1.48859 131.876 9.57724 131.876 9.57724L76.1608 99.1173C72.6994 104.677 76.6989 111.869 83.2451 111.869H211.865C218.412 111.869 222.411 104.668 218.95 99.1084L163.235 9.56827V9.57724Z" fill="#FFDA00"/>
<path d="M131.302 81.353C139.761 81.353 146.618 73.0462 146.618 62.7993C146.618 52.5524 139.761 44.2456 131.302 44.2456C122.843 44.2456 115.985 52.5524 115.985 62.7993C115.985 73.0462 122.843 81.353 131.302 81.353Z" fill="white" stroke="black" stroke-width="2" stroke-miterlimit="10"/>
<path d="M129.033 77.1024C133.817 77.1024 137.696 72.405 137.696 66.6105C137.696 60.8159 133.817 56.1185 129.033 56.1185C124.249 56.1185 120.37 60.8159 120.37 66.6105C120.37 72.405 124.249 77.1024 129.033 77.1024Z" fill="black"/>
<path d="M163.809 81.353C172.268 81.353 179.126 73.0462 179.126 62.7993C179.126 52.5524 172.268 44.2456 163.809 44.2456C155.35 44.2456 148.493 52.5524 148.493 62.7993C148.493 73.0462 155.35 81.353 163.809 81.353Z" fill="white" stroke="black" stroke-width="2" stroke-miterlimit="10"/>
<path d="M161.513 76.4474C166.298 76.4474 170.176 71.75 170.176 65.9555C170.176 60.161 166.298 55.4636 161.513 55.4636C156.729 55.4636 152.851 60.161 152.851 65.9555C152.851 71.75 156.729 76.4474 161.513 76.4474Z" fill="black"/>
<path d="M264.98 -16.8409C264.98 -16.8409 274.243 -17.1458 280.009 -7.64025C285.775 1.86526 281.22 9.94494 281.22 9.94494L233.594 103.897C230.634 109.735 222.42 110.04 219.03 104.453L185.725 49.5273L152.42 -5.39838C149.039 -10.9941 153.111 -18.1322 159.657 -18.0604L264.989 -16.8409H264.98Z" fill="#7DEC52"/>
<path d="M257.447 25.5036C265.906 25.5036 272.763 17.1968 272.763 6.94991C272.763 -3.297 265.906 -11.6038 257.447 -11.6038C248.988 -11.6038 242.131 -3.297 242.131 6.94991C242.131 17.1968 248.988 25.5036 257.447 25.5036Z" fill="white" stroke="black" stroke-width="2" stroke-miterlimit="10"/>
<path d="M252.569 22.634C257.353 22.634 261.232 17.9366 261.232 12.1421C261.232 6.34754 257.353 1.65015 252.569 1.65015C247.785 1.65015 243.906 6.34754 243.906 12.1421C243.906 17.9366 247.785 22.634 252.569 22.634Z" fill="black"/>
<path d="M226.814 25.5036C235.273 25.5036 242.131 17.1968 242.131 6.94991C242.131 -3.297 235.273 -11.6038 226.814 -11.6038C218.355 -11.6038 211.498 -3.297 211.498 6.94991C211.498 17.1968 218.355 25.5036 226.814 25.5036Z" fill="white" stroke="black" stroke-width="2" stroke-miterlimit="10"/>
<path d="M222.519 24.3558C227.303 24.3558 231.181 19.6584 231.181 13.8639C231.181 8.06934 227.303 3.37195 222.519 3.37195C217.734 3.37195 213.856 8.06934 213.856 13.8639C213.856 19.6584 217.734 24.3558 222.519 24.3558Z" fill="black"/>
<path d="M255.645 115.51C255.645 115.51 246.381 115.815 240.615 106.309C234.849 96.8038 239.405 88.7241 239.405 88.7241L287.031 -5.22799C289.99 -11.0658 298.204 -11.3707 301.594 -5.78397L334.899 49.1417L368.204 104.067C371.594 109.663 367.523 116.801 360.976 116.729L255.645 115.51Z" fill="#3185FF"/>
<path d="M274.414 106.955C282.873 106.955 289.73 98.648 289.73 88.4011C289.73 78.1542 282.873 69.8474 274.414 69.8474C265.955 69.8474 259.097 78.1542 259.097 88.4011C259.097 98.648 265.955 106.955 274.414 106.955Z" fill="white" stroke="black" stroke-width="2" stroke-miterlimit="10"/>
<path d="M269.177 103.117C273.961 103.117 277.839 98.4195 277.839 92.625C277.839 86.8305 273.961 82.1331 269.177 82.1331C264.392 82.1331 260.514 86.8305 260.514 92.625C260.514 98.4195 264.392 103.117 269.177 103.117Z" fill="black"/>
<path d="M306.92 106.955C315.379 106.955 322.237 98.648 322.237 88.4011C322.237 78.1542 315.379 69.8474 306.92 69.8474C298.461 69.8474 291.604 78.1542 291.604 88.4011C291.604 98.648 298.461 106.955 306.92 106.955Z" fill="white" stroke="black" stroke-width="2" stroke-miterlimit="10"/>
<path d="M301.675 103.117C306.459 103.117 310.337 98.4195 310.337 92.625C310.337 86.8305 306.459 82.1331 301.675 82.1331C296.89 82.1331 293.012 86.8305 293.012 92.625C293.012 98.4195 296.89 103.117 301.675 103.117Z" fill="black"/>
<path d="M277.373 249.744C277.373 249.744 286.636 250.049 292.402 240.543C298.169 231.038 293.613 222.958 293.613 222.958L245.987 129.006C243.028 123.168 234.813 122.863 231.424 128.45L198.119 183.376L164.813 238.301C161.424 243.897 165.495 251.035 172.041 250.963L277.373 249.744Z" fill="#FF3EFA"/>
<path d="M220.743 204.091C229.202 204.091 236.06 195.784 236.06 185.537C236.06 175.29 229.202 166.983 220.743 166.983C212.284 166.983 205.427 175.29 205.427 185.537C205.427 195.784 212.284 204.091 220.743 204.091Z" fill="white" stroke="black" stroke-width="2" stroke-miterlimit="10"/>
<path d="M214.206 193.689C218.99 193.689 222.868 188.991 222.868 183.197C222.868 177.402 218.99 172.705 214.206 172.705C209.422 172.705 205.543 177.402 205.543 183.197C205.543 188.991 209.422 193.689 214.206 193.689Z" fill="black"/>
<path d="M251.977 204.091C260.436 204.091 267.293 195.784 267.293 185.537C267.293 175.29 260.436 166.983 251.977 166.983C243.518 166.983 236.66 175.29 236.66 185.537C236.66 195.784 243.518 204.091 251.977 204.091Z" fill="white" stroke="black" stroke-width="2" stroke-miterlimit="10"/>
<path d="M245.44 193.689C250.224 193.689 254.102 188.991 254.102 183.197C254.102 177.402 250.224 172.705 245.44 172.705C240.655 172.705 236.777 177.402 236.777 183.197C236.777 188.991 240.655 193.689 245.44 193.689Z" fill="black"/>
<path d="M227.047 218.394C235.593 219.999 249.053 227.083 255.931 215.91C257.214 213.829 259.285 212.26 261.697 211.91C269.822 210.735 273.57 222.393 265.024 227.827C255.537 233.872 239.889 240.947 216.636 227.81C214.914 226.841 214.789 224.994 216.331 223.756L221.218 219.837C222.85 218.528 224.976 218.008 227.038 218.394H227.047Z" fill="black"/>
<path d="M175.834 195.186C187.259 194.531 190.774 198.038 194.836 205.624C198.899 213.211 191.294 213.722 186.317 207.256C180.336 199.499 172.445 203.893 172.445 203.893C165.208 209.758 179.394 216.376 179.394 216.376C197.311 220.815 192.37 224.07 188.577 225.066C184.784 226.061 172.812 224.59 172.812 224.59C172.812 224.59 165.836 225.505 160.895 231.54C160.895 231.54 147.336 223.281 145.578 217.354L154.384 212C154.384 212 153.317 204.745 161.549 196.836C169.79 188.927 179.018 190.245 183.851 191.671C183.851 191.671 188.353 192.666 188.514 197.589" fill="white"/>
<path d="M175.834 195.186C187.259 194.531 190.774 198.038 194.836 205.624C198.899 213.211 191.294 213.722 186.317 207.256C180.336 199.499 172.445 203.893 172.445 203.893C165.208 209.758 179.394 216.376 179.394 216.376C197.311 220.815 192.37 224.07 188.577 225.066C184.784 226.061 172.812 224.59 172.812 224.59C172.812 224.59 165.836 225.505 160.895 231.54C160.895 231.54 147.336 223.281 145.578 217.354L154.384 212C154.384 212 153.317 204.745 161.549 196.836C169.79 188.927 179.018 190.245 183.851 191.671C183.851 191.671 188.353 192.666 188.514 197.589" stroke="black" stroke-width="2" stroke-miterlimit="10"/>
<path d="M204.306 196.298C192.881 195.643 189.366 199.149 185.304 206.736C181.242 214.313 188.846 214.833 193.823 208.368C199.804 200.611 207.696 205.005 207.696 205.005C214.932 210.87 200.746 217.488 200.746 217.488C182.829 221.927 187.77 225.182 191.563 226.177C195.356 227.173 207.328 225.702 207.328 225.702C207.328 225.702 214.305 226.617 219.246 232.652C219.246 232.652 232.805 224.393 234.562 218.465L225.756 213.112C225.756 213.112 226.823 205.857 218.591 197.948C210.35 190.038 201.123 191.357 196.289 192.782C196.289 192.782 191.787 193.778 191.626 198.701" fill="white"/>
<path d="M204.306 196.298C192.881 195.643 189.366 199.149 185.304 206.736C181.242 214.313 188.846 214.833 193.823 208.368C199.804 200.611 207.696 205.005 207.696 205.005C214.932 210.87 200.746 217.488 200.746 217.488C182.829 221.927 187.77 225.182 191.563 226.177C195.356 227.173 207.328 225.702 207.328 225.702C207.328 225.702 214.305 226.617 219.246 232.652C219.246 232.652 232.805 224.393 234.562 218.465L225.756 213.112C225.756 213.112 226.823 205.857 218.591 197.948C210.35 190.038 201.123 191.357 196.289 192.782C196.289 192.782 191.787 193.778 191.626 198.701" stroke="black" stroke-width="2" stroke-miterlimit="10"/>
<path d="M31.198 96.0325C31.198 96.0325 18.1862 95.602 10.0886 108.964C1.99094 122.325 8.38474 133.669 8.38474 133.669L75.2999 265.67C79.4519 273.866 91.002 274.306 95.7637 266.45L142.556 189.276L189.348 112.102C194.11 104.247 188.389 94.2121 179.197 94.3197L31.2159 96.0325H31.198Z" fill="#5B2EE0"/>
<path d="M103.669 142.335C106.477 128.22 99.3065 114.898 87.6536 112.58C76.0006 110.262 64.2778 119.826 61.4701 133.942C58.6623 148.057 65.8327 161.379 77.4857 163.697C89.1386 166.015 100.861 156.451 103.669 142.335Z" fill="white" stroke="black" stroke-width="2" stroke-miterlimit="10"/>
<path d="M103.634 141.848C105.855 134.014 102.414 126.178 95.948 124.345C89.4822 122.511 82.4402 127.375 80.2192 135.209C77.9981 143.042 81.4392 150.878 87.905 152.712C94.3708 154.545 101.413 149.681 103.634 141.848Z" fill="black"/>
<path d="M62.1291 126.792C64.9368 112.676 57.7664 99.3542 46.1134 97.0363C34.4604 94.7184 22.7377 104.282 19.9299 118.398C17.1221 132.514 24.2926 145.836 35.9455 148.154C47.5985 150.472 59.3213 140.908 62.1291 126.792Z" fill="white" stroke="black" stroke-width="2" stroke-miterlimit="10"/>
<path d="M62.0989 126.301C64.32 118.468 60.8789 110.631 54.4131 108.798C47.9473 106.965 40.9053 111.829 38.6842 119.662C36.4632 127.495 39.9043 135.332 46.3701 137.165C52.8359 138.998 59.8779 134.134 62.0989 126.301Z" fill="black"/>
<path d="M44.829 93.7909L55.3926 58.4591C56.0831 56.1544 59.141 55.6791 60.4951 57.6699L84.4293 92.8134C85.7206 94.7055 84.3665 97.2702 82.0798 97.2792L47.582 97.4675C45.6629 97.4765 44.273 95.6292 44.829 93.7909Z" fill="black"/>
<path d="M58.441 59.8847L59.0687 61.2029C59.0687 61.2029 59.1225 61.2747 59.1674 61.3016L60.4856 61.9293C60.638 62.001 60.638 62.2252 60.4856 62.297L59.1674 62.9247C59.1674 62.9247 59.0956 62.9785 59.0687 63.0233L58.441 64.3415C58.3693 64.494 58.1451 64.494 58.0733 64.3415L57.4456 63.0233C57.4456 63.0233 57.3918 62.9516 57.347 62.9247L56.0288 62.297C55.8763 62.2252 55.8763 62.001 56.0288 61.9293L57.347 61.3016C57.347 61.3016 57.4187 61.2478 57.4456 61.2029L58.0733 59.8847C58.1451 59.7323 58.3693 59.7323 58.441 59.8847Z" fill="white"/>
<path d="M53.4192 84.1147L54.1635 85.6751C54.1904 85.7289 54.2263 85.7647 54.2801 85.7916L55.8404 86.5359C56.0198 86.6256 56.0198 86.8857 55.8404 86.9754L54.2801 87.7197C54.2263 87.7466 54.1904 87.7824 54.1635 87.8362L53.4192 89.3966C53.3295 89.5759 53.0695 89.5759 52.9798 89.3966L52.2355 87.8362C52.2086 87.7824 52.1727 87.7466 52.1189 87.7197L50.5586 86.9754C50.3792 86.8857 50.3792 86.6256 50.5586 86.5359L52.1189 85.7916C52.1727 85.7647 52.2086 85.7289 52.2355 85.6751L52.9798 84.1147C53.0695 83.9354 53.3295 83.9354 53.4192 84.1147Z" fill="white"/>
<path d="M58.5756 72.2869L59.3199 73.8472C59.3468 73.901 59.3826 73.9369 59.4365 73.9638L60.9968 74.7081C61.1761 74.7977 61.1761 75.0578 60.9968 75.1475L59.4365 75.8918C59.3826 75.9187 59.3468 75.9545 59.3199 76.0084L58.5756 77.5687C58.4859 77.748 58.2258 77.748 58.1362 77.5687L57.3919 76.0084C57.365 75.9545 57.3291 75.9187 57.2753 75.8918L55.715 75.1475C55.5356 75.0578 55.5356 74.7977 55.715 74.7081L57.2753 73.9638C57.3291 73.9369 57.365 73.901 57.3919 73.8472L58.1362 72.2869C58.2258 72.1075 58.4859 72.1075 58.5756 72.2869Z" fill="white"/>
<path d="M69.041 84.1147L69.7853 85.6751C69.8122 85.7289 69.8481 85.7647 69.9019 85.7916L71.4622 86.5359C71.6416 86.6256 71.6416 86.8857 71.4622 86.9754L69.9019 87.7197C69.8481 87.7466 69.8122 87.7824 69.7853 87.8362L69.041 89.3966C68.9514 89.5759 68.6913 89.5759 68.6016 89.3966L67.8573 87.8362C67.8304 87.7824 67.7946 87.7466 67.7407 87.7197L66.1804 86.9754C66.0011 86.8857 66.0011 86.6256 66.1804 86.5359L67.7407 85.7916C67.7946 85.7647 67.8304 85.7289 67.8573 85.6751L68.6016 84.1147C68.6913 83.9354 68.9514 83.9354 69.041 84.1147Z" fill="white"/>
<path d="M79.5866 90.1052L80.3309 91.6656C80.3578 91.7194 80.3936 91.7552 80.4474 91.7821L82.0078 92.5264C82.1871 92.6161 82.1871 92.8762 82.0078 92.9658L80.4474 93.7101C80.3936 93.737 80.3578 93.7729 80.3309 93.8267L79.5866 95.387C79.4969 95.5664 79.2368 95.5664 79.1472 95.387L78.4029 93.8267C78.376 93.7729 78.3401 93.737 78.2863 93.7101L76.7259 92.9658C76.5466 92.8762 76.5466 92.6161 76.7259 92.5264L78.2863 91.7821C78.3401 91.7552 78.376 91.7194 78.4029 91.6656L79.1472 90.1052C79.2368 89.9259 79.4969 89.9259 79.5866 90.1052Z" fill="white"/>
<path d="M55.8494 67.7582L56.3785 68.8702C56.3785 68.8702 56.4233 68.933 56.4592 68.9509L57.5711 69.48C57.7057 69.5428 57.7057 69.7311 57.5711 69.7938L56.4592 70.3229C56.4592 70.3229 56.3964 70.3678 56.3785 70.4036L55.8494 71.5156C55.7866 71.6501 55.5983 71.6501 55.5355 71.5156L55.0064 70.4036C55.0064 70.4036 54.9616 70.3409 54.9257 70.3229L53.8138 69.7938C53.6793 69.7311 53.6793 69.5428 53.8138 69.48L54.9257 68.9509C54.9257 68.9509 54.9885 68.9061 55.0064 68.8702L55.5355 67.7582C55.5983 67.6237 55.7866 67.6237 55.8494 67.7582Z" fill="white"/>
<path d="M53.5269 78.1158L54.056 79.2277C54.056 79.2277 54.1008 79.2905 54.1367 79.3085L55.2486 79.8375C55.3831 79.9003 55.3831 80.0886 55.2486 80.1514L54.1367 80.6805C54.1367 80.6805 54.0739 80.7253 54.056 80.7612L53.5269 81.8731C53.4641 82.0077 53.2758 82.0077 53.213 81.8731L52.6839 80.7612C52.6839 80.7612 52.6391 80.6984 52.6032 80.6805L51.4913 80.1514C51.3568 80.0886 51.3568 79.9003 51.4913 79.8375L52.6032 79.3085C52.6032 79.3085 52.666 79.2636 52.6839 79.2277L53.213 78.1158C53.2758 77.9813 53.4641 77.9813 53.5269 78.1158Z" fill="white"/>
<path d="M64.5659 70.0629L65.095 71.1749C65.095 71.1749 65.1399 71.2377 65.1757 71.2556L66.2877 71.7847C66.4222 71.8475 66.4222 72.0358 66.2877 72.0985L65.1757 72.6276C65.1757 72.6276 65.1129 72.6725 65.095 72.7083L64.5659 73.8203C64.5032 73.9548 64.3149 73.9548 64.2521 73.8203L63.723 72.7083C63.723 72.7083 63.6782 72.6455 63.6423 72.6276L62.5303 72.0985C62.3958 72.0358 62.3958 71.8475 62.5303 71.7847L63.6423 71.2556C63.6423 71.2556 63.7051 71.2108 63.723 71.1749L64.2521 70.0629C64.3149 69.9284 64.5032 69.9284 64.5659 70.0629Z" fill="white"/>
<path d="M50.5227 90.4459L51.0518 91.5578C51.0518 91.5578 51.0966 91.6206 51.1325 91.6385L52.2445 92.1676C52.379 92.2304 52.379 92.4187 52.2445 92.4815L51.1325 93.0105C51.1325 93.0105 51.0697 93.0554 51.0518 93.0913L50.5227 94.2032C50.46 94.3377 50.2716 94.3377 50.2089 94.2032L49.6798 93.0913C49.6798 93.0913 49.635 93.0285 49.5991 93.0105L48.4871 92.4815C48.3526 92.4187 48.3526 92.2304 48.4871 92.1676L49.5991 91.6385C49.5991 91.6385 49.6619 91.5937 49.6798 91.5578L50.2089 90.4459C50.2716 90.3113 50.46 90.3113 50.5227 90.4459Z" fill="white"/>
<path d="M69.023 75.9184L69.5521 77.0304C69.5521 77.0304 69.5969 77.0932 69.6328 77.1111L70.7447 77.6402C70.8792 77.703 70.8792 77.8913 70.7447 77.9541L69.6328 78.4831C69.6328 78.4831 69.57 78.528 69.5521 78.5638L69.023 79.6758C68.9602 79.8103 68.7719 79.8103 68.7091 79.6758L68.18 78.5638C68.18 78.5638 68.1352 78.5011 68.0993 78.4831L66.9874 77.9541C66.8528 77.8913 66.8528 77.703 66.9874 77.6402L68.0993 77.1111C68.0993 77.1111 68.1621 77.0663 68.18 77.0304L68.7091 75.9184C68.7719 75.7839 68.9602 75.7839 69.023 75.9184Z" fill="white"/>
<path d="M63.7591 64.2253L64.2881 65.3372C64.2881 65.3372 64.333 65.4 64.3688 65.4179L65.4808 65.947C65.6153 66.0098 65.6153 66.1981 65.4808 66.2609L64.3688 66.79C64.3688 66.79 64.3061 66.8348 64.2881 66.8707L63.7591 67.9826C63.6963 68.1171 63.508 68.1171 63.4452 67.9826L62.9161 66.8707C62.9161 66.8707 62.8713 66.8079 62.8354 66.79L61.7234 66.2609C61.5889 66.1981 61.5889 66.0098 61.7234 65.947L62.8354 65.4179C62.8354 65.4179 62.8982 65.3731 62.9161 65.3372L63.4452 64.2253C63.508 64.0908 63.6963 64.0908 63.7591 64.2253Z" fill="white"/>
<path d="M60.5395 83.6664L61.0685 84.7784C61.0685 84.7784 61.1134 84.8412 61.1492 84.8591L62.2612 85.3882C62.3957 85.451 62.3957 85.6393 62.2612 85.702L61.1492 86.2311C61.1492 86.2311 61.0865 86.276 61.0685 86.3118L60.5395 87.4238C60.4767 87.5583 60.2884 87.5583 60.2256 87.4238L59.6965 86.3118C59.6965 86.3118 59.6517 86.2491 59.6158 86.2311L58.5038 85.702C58.3693 85.6393 58.3693 85.451 58.5038 85.3882L59.6158 84.8591C59.6158 84.8591 59.6786 84.8143 59.6965 84.7784L60.2256 83.6664C60.2884 83.5319 60.4767 83.5319 60.5395 83.6664Z" fill="white"/>
<path d="M62.5841 78.1158L63.1132 79.2277C63.1132 79.2277 63.1581 79.2905 63.1939 79.3085L64.3059 79.8375C64.4404 79.9003 64.4404 80.0886 64.3059 80.1514L63.1939 80.6805C63.1939 80.6805 63.1311 80.7253 63.1132 80.7612L62.5841 81.8731C62.5214 82.0077 62.333 82.0077 62.2703 81.8731L61.7412 80.7612C61.7412 80.7612 61.6964 80.6984 61.6605 80.6805L60.5485 80.1514C60.414 80.0886 60.414 79.9003 60.5485 79.8375L61.6605 79.3085C61.6605 79.3085 61.7233 79.2636 61.7412 79.2277L62.2703 78.1158C62.333 77.9813 62.5214 77.9813 62.5841 78.1158Z" fill="white"/>
<path d="M74.278 81.4694L74.8071 82.5814C74.8071 82.5814 74.8519 82.6442 74.8878 82.6621L75.9997 83.1912C76.1342 83.2539 76.1342 83.4423 75.9997 83.505L74.8878 84.0341C74.8878 84.0341 74.825 84.0789 74.8071 84.1148L74.278 85.2268C74.2152 85.3613 74.0269 85.3613 73.9641 85.2268L73.435 84.1148C73.435 84.1148 73.3902 84.052 73.3543 84.0341L72.2424 83.505C72.1079 83.4423 72.1079 83.2539 72.2424 83.1912L73.3543 82.6621C73.3543 82.6621 73.4171 82.6173 73.435 82.5814L73.9641 81.4694C74.0269 81.3349 74.2152 81.3349 74.278 81.4694Z" fill="white"/>
<path d="M58.4949 91.4142L59.024 92.5261C59.024 92.5261 59.0688 92.5889 59.1047 92.6069L60.2167 93.1359C60.3512 93.1987 60.3512 93.387 60.2167 93.4498L59.1047 93.9789C59.1047 93.9789 59.0419 94.0237 59.024 94.0596L58.4949 95.1715C58.4321 95.3061 58.2438 95.3061 58.181 95.1715L57.652 94.0596C57.652 94.0596 57.6071 93.9968 57.5712 93.9789L56.4593 93.4498C56.3248 93.387 56.3248 93.1987 56.4593 93.1359L57.5712 92.6069C57.5712 92.6069 57.634 92.562 57.652 92.5261L58.181 91.4142C58.2438 91.2797 58.4321 91.2797 58.4949 91.4142Z" fill="white"/>
<path d="M71.9462 91.7105L72.4753 92.8225C72.4753 92.8225 72.5201 92.8852 72.556 92.9032L73.6679 93.4323C73.8025 93.495 73.8025 93.6833 73.6679 93.7461L72.556 94.2752C72.556 94.2752 72.4932 94.32 72.4753 94.3559L71.9462 95.4679C71.8834 95.6024 71.6951 95.6024 71.6323 95.4679L71.1033 94.3559C71.1033 94.3559 71.0584 94.2931 71.0225 94.2752L69.9106 93.7461C69.7761 93.6833 69.7761 93.495 69.9106 93.4323L71.0225 92.9032C71.0225 92.9032 71.0853 92.8583 71.1033 92.8225L71.6323 91.7105C71.6951 91.576 71.8834 91.576 71.9462 91.7105Z" fill="white"/>
<path d="M63.9022 89.0739L64.4313 90.1859C64.4313 90.1859 64.4762 90.2486 64.512 90.2666L65.624 90.7957C65.7585 90.8584 65.7585 91.0467 65.624 91.1095L64.512 91.6386C64.512 91.6386 64.4493 91.6834 64.4313 91.7193L63.9022 92.8313C63.8395 92.9658 63.6512 92.9658 63.5884 92.8313L63.0593 91.7193C63.0593 91.7193 63.0145 91.6565 62.9786 91.6386L61.8666 91.1095C61.7321 91.0467 61.7321 90.8584 61.8666 90.7957L62.9786 90.2666C62.9786 90.2666 63.0414 90.2217 63.0593 90.1859L63.5884 89.0739C63.6512 88.9394 63.8395 88.9394 63.9022 89.0739Z" fill="white"/>
<path d="M157.263 155.227C162.607 161.262 157.917 173.108 182.811 158.742C185.833 157.002 189.716 157.854 192.379 160.105L196.307 163.423C201.006 167.387 208.799 173.18 203.625 176.498C186.981 187.151 140.18 205.624 135.893 165.244C135.723 163.638 135.499 162.042 135.929 160.491L136.109 159.836C138.736 150.34 150.735 147.865 157.263 155.245V155.227Z" fill="black"/>
<path d="M242.185 117.232H206.127V146.708H242.185V117.232Z" fill="white"/>
<path d="M198.791 110.533C198.791 110.533 202.737 92.8493 197.123 72.0537C197.033 62.4765 229.496 61.777 218.268 109.045" fill="white"/>
<path d="M198.791 110.533C198.791 110.533 202.737 92.8493 197.123 72.0537C197.033 62.4765 229.496 61.777 218.268 109.045" stroke="black" stroke-width="2" stroke-miterlimit="10"/>
<path d="M239.907 112.049C239.907 112.049 252.82 106.031 256.326 117.949C259.833 129.867 244.148 155.738 238.06 135.705C238.06 135.705 246.597 126.755 238.669 122.792" fill="white"/>
<path d="M239.907 112.049C239.907 112.049 252.82 106.031 256.326 117.949C259.833 129.867 244.148 155.738 238.06 135.705C238.06 135.705 246.597 126.755 238.669 122.792" stroke="black" stroke-width="2" stroke-miterlimit="10"/>
<path d="M230.518 104.937C230.518 104.937 243.431 98.9203 246.937 110.838C250.443 122.756 234.759 148.627 228.67 128.594C228.67 128.594 237.207 119.644 229.28 115.68" fill="white"/>
<path d="M230.518 104.937C230.518 104.937 243.431 98.9203 246.937 110.838C250.443 122.756 234.759 148.627 228.67 128.594C228.67 128.594 237.207 119.644 229.28 115.68" stroke="black" stroke-width="2" stroke-miterlimit="10"/>
<path d="M214.735 108.731C214.735 108.731 222.779 100.983 222.563 79.4428C222.25 57.0959 256.676 69.2199 233.961 112.165L227.361 123.545" fill="white"/>
<path d="M214.735 108.731C214.735 108.731 222.779 100.983 222.563 79.4428C222.25 57.0959 256.676 69.2199 233.961 112.165L227.361 123.545" stroke="black" stroke-width="2" stroke-miterlimit="10"/>
<path d="M216.888 143.883C216.888 143.883 218.412 130.136 210.009 124.029C210.009 124.029 231.773 122.505 223.38 112.192C214.977 101.879 187.483 105.7 187.483 118.299C187.483 130.898 192.828 143.883 192.828 143.883L183.277 157.254C183.277 157.254 203.49 180.623 211.157 178.255C218.824 175.888 225.308 158.778 225.308 158.778C225.308 158.778 241.324 160.383 243.62 142.816" fill="white"/>
<path d="M216.888 143.883C216.888 143.883 218.412 130.136 210.009 124.029C210.009 124.029 231.773 122.505 223.38 112.192C214.977 101.879 187.483 105.7 187.483 118.299C187.483 130.898 192.828 143.883 192.828 143.883L183.277 157.254C183.277 157.254 203.49 180.623 211.157 178.255C218.824 175.888 225.308 158.778 225.308 158.778C225.308 158.778 241.324 160.383 243.62 142.816" stroke="black" stroke-width="2" stroke-miterlimit="10"/>
<path d="M242.068 142.358C242.068 142.358 243.772 143.704 246.372 142.601L242.068 142.358Z" fill="white"/>
<path d="M242.068 142.358C242.068 142.358 243.772 143.704 246.372 142.601" stroke="black" stroke-width="2" stroke-miterlimit="10"/>
</g>
<mask id="mask1_499_7223" style="mask-type:luminance" maskUnits="userSpaceOnUse" x="16" y="250" width="318" height="230">
<path d="M333.096 250.049H16.9037V479.078H333.096V250.049Z" fill="white"/>
</mask>
<g mask="url(#mask1_499_7223)">
<path d="M190.559 394.013C190.559 394.013 185.842 385.61 174.283 385.61C162.724 385.61 157.998 394.013 157.998 394.013L100.149 486.978C96.5529 492.753 100.705 500.223 107.511 500.223H241.055C247.852 500.223 252.004 492.753 248.417 486.978L190.568 394.013H190.559Z" fill="#FF6840"/>
<path d="M157.406 486.323C166.187 486.323 173.306 477.699 173.306 467.061C173.306 456.423 166.187 447.799 157.406 447.799C148.625 447.799 141.507 456.423 141.507 467.061C141.507 477.699 148.625 486.323 157.406 486.323Z" fill="white" stroke="black" stroke-width="2" stroke-miterlimit="10"/>
<path d="M164.32 476.289C169.287 476.289 173.314 471.411 173.314 465.393C173.314 459.376 169.287 454.498 164.32 454.498C159.352 454.498 155.326 459.376 155.326 465.393C155.326 471.411 159.352 476.289 164.32 476.289Z" fill="black"/>
<path d="M191.151 486.323C199.932 486.323 207.05 477.699 207.05 467.061C207.05 456.423 199.932 447.799 191.151 447.799C182.37 447.799 175.251 456.423 175.251 467.061C175.251 477.699 182.37 486.323 191.151 486.323Z" fill="white" stroke="black" stroke-width="2" stroke-miterlimit="10"/>
<path d="M184.246 476.289C189.213 476.289 193.24 471.411 193.24 465.393C193.24 459.376 189.213 454.498 184.246 454.498C179.278 454.498 175.251 459.376 175.251 465.393C175.251 471.411 179.278 476.289 184.246 476.289Z" fill="black"/>
<path d="M157.935 325.6C157.935 325.6 162.679 334.038 174.283 334.038C185.887 334.038 190.639 325.6 190.639 325.6L248.74 232.221C252.345 226.419 248.175 218.923 241.35 218.923H107.215C100.382 218.923 96.221 226.428 99.8259 232.221L157.926 325.6H157.935Z" fill="#FFDA00"/>
<path d="M191.231 289.443C200.052 289.443 207.202 280.783 207.202 270.1C207.202 259.417 200.052 250.757 191.231 250.757C182.41 250.757 175.26 259.417 175.26 270.1C175.26 280.783 182.41 289.443 191.231 289.443Z" fill="white" stroke="black" stroke-width="2" stroke-miterlimit="10"/>
<path d="M191.698 285.139C196.685 285.139 200.728 280.24 200.728 274.198C200.728 268.156 196.685 263.258 191.698 263.258C186.711 263.258 182.668 268.156 182.668 274.198C182.668 280.24 186.711 285.139 191.698 285.139Z" fill="black"/>
<path d="M157.334 289.443C166.155 289.443 173.305 280.783 173.305 270.1C173.305 259.417 166.155 250.757 157.334 250.757C148.514 250.757 141.363 259.417 141.363 270.1C141.363 280.783 148.514 289.443 157.334 289.443Z" fill="white" stroke="black" stroke-width="2" stroke-miterlimit="10"/>
<path d="M157.801 285.139C162.788 285.139 166.831 280.24 166.831 274.198C166.831 268.156 162.788 263.258 157.801 263.258C152.813 263.258 148.77 268.156 148.77 274.198C148.77 280.24 152.813 285.139 157.801 285.139Z" fill="black"/>
<path d="M131.804 363.882C131.804 363.882 141.462 363.559 147.479 373.477C153.487 383.395 148.744 391.815 148.744 391.815L99.0728 489.794C95.988 495.874 87.424 496.205 83.8819 490.368L49.1509 433.084L14.4199 375.799C10.8867 369.971 15.1373 362.519 21.9526 362.599L131.795 363.873L131.804 363.882Z" fill="#3185FF"/>
<path d="M112.228 411.499C121.049 411.499 128.199 402.839 128.199 392.156C128.199 381.473 121.049 372.813 112.228 372.813C103.408 372.813 96.2571 381.473 96.2571 392.156C96.2571 402.839 103.408 411.499 112.228 411.499Z" fill="white" stroke="black" stroke-width="2" stroke-miterlimit="10"/>
<path d="M119.375 402.128C124.363 402.128 128.406 397.23 128.406 391.188C128.406 385.146 124.363 380.247 119.375 380.247C114.388 380.247 110.345 385.146 110.345 391.188C110.345 397.23 114.388 402.128 119.375 402.128Z" fill="black"/>
<path d="M78.331 411.499C87.1516 411.499 94.3021 402.839 94.3021 392.156C94.3021 381.473 87.1516 372.813 78.331 372.813C69.5105 372.813 62.36 381.473 62.36 392.156C62.36 402.839 69.5105 411.499 78.331 411.499Z" fill="white" stroke="black" stroke-width="2" stroke-miterlimit="10"/>
<path d="M85.4781 402.128C90.4654 402.128 94.5083 397.23 94.5083 391.188C94.5083 385.146 90.4654 380.247 85.4781 380.247C80.4908 380.247 76.4479 385.146 76.4479 391.188C76.4479 397.23 80.4908 402.128 85.4781 402.128Z" fill="black"/>
<path d="M218.959 363.882C218.959 363.882 209.301 363.559 203.283 373.477C197.275 383.395 202.019 391.815 202.019 391.815L251.69 489.794C254.775 495.874 263.339 496.205 266.881 490.368L301.612 433.084L336.343 375.799C339.876 369.971 335.625 362.519 328.81 362.599L218.968 363.873L218.959 363.882Z" fill="#FF3EFA"/>
<path d="M278.009 450.185C286.83 450.185 293.98 441.524 293.98 430.842C293.98 420.159 286.83 411.499 278.009 411.499C269.189 411.499 262.038 420.159 262.038 430.842C262.038 441.524 269.189 450.185 278.009 450.185Z" fill="white" stroke="black" stroke-width="2" stroke-miterlimit="10"/>
<path d="M274.413 434.079C279.401 434.079 283.444 429.181 283.444 423.139C283.444 417.097 279.401 412.198 274.413 412.198C269.426 412.198 265.383 417.097 265.383 423.139C265.383 429.181 269.426 434.079 274.413 434.079Z" fill="black"/>
<path d="M245.44 450.185C254.26 450.185 261.411 441.524 261.411 430.842C261.411 420.159 254.26 411.499 245.44 411.499C236.619 411.499 229.469 420.159 229.469 430.842C229.469 441.524 236.619 450.185 245.44 450.185Z" fill="white" stroke="black" stroke-width="2" stroke-miterlimit="10"/>
<path d="M241.834 434.079C246.822 434.079 250.865 429.181 250.865 423.139C250.865 417.097 246.822 412.198 241.834 412.198C236.847 412.198 232.804 417.097 232.804 423.139C232.804 429.181 236.847 434.079 241.834 434.079Z" fill="black"/>
<path d="M217.075 358.967C217.075 358.967 207.417 359.29 201.4 349.372C195.392 339.454 200.136 331.034 200.136 331.034L249.806 233.055C252.891 226.975 261.455 226.644 264.997 232.481L299.728 289.766L334.459 347.05C337.992 352.879 333.742 360.331 326.927 360.25L217.084 358.976L217.075 358.967Z" fill="#7DEC52"/>
<path d="M224.94 353.497C233.761 353.497 240.911 344.837 240.911 334.155C240.911 323.472 233.761 314.812 224.94 314.812C216.12 314.812 208.969 323.472 208.969 334.155C208.969 344.837 216.12 353.497 224.94 353.497Z" fill="white" stroke="black" stroke-width="2" stroke-miterlimit="10"/>
<path d="M217.981 343.517C222.968 343.517 227.011 338.619 227.011 332.576C227.011 326.534 222.968 321.636 217.981 321.636C212.994 321.636 208.951 326.534 208.951 332.576C208.951 338.619 212.994 343.517 217.981 343.517Z" fill="black"/>
<path d="M256.873 353.497C265.694 353.497 272.844 344.837 272.844 334.155C272.844 323.472 265.694 314.812 256.873 314.812C248.053 314.812 240.902 323.472 240.902 334.155C240.902 344.837 248.053 353.497 256.873 353.497Z" fill="white" stroke="black" stroke-width="2" stroke-miterlimit="10"/>
<path d="M249.923 343.517C254.91 343.517 258.953 338.619 258.953 332.576C258.953 326.534 254.91 321.636 249.923 321.636C244.936 321.636 240.893 326.534 240.893 332.576C240.893 338.619 244.936 343.517 249.923 343.517Z" fill="black"/>
<path d="M128.8 358.967C128.8 358.967 138.458 359.29 144.475 349.372C150.483 339.454 145.739 331.034 145.739 331.034L96.0686 233.055C92.9838 226.975 84.4199 226.644 80.8777 232.481L46.1468 289.766L11.4158 347.05C7.8826 352.879 12.1332 360.331 18.9484 360.25L128.791 358.976L128.8 358.967Z" fill="#5B2EE0"/>
<path d="M106.332 330.799C108.416 320.322 103.092 310.433 94.4411 308.712C85.79 306.992 77.0874 314.09 75.0033 324.568C72.9192 335.045 78.2428 344.934 86.8939 346.655C95.545 348.376 104.248 341.277 106.332 330.799Z" fill="white" stroke="black" stroke-width="2" stroke-miterlimit="10"/>
<path d="M105.705 331.65C107.353 325.837 104.799 320.022 100.001 318.662C95.2031 317.301 89.9773 320.911 88.3291 326.724C86.6809 332.537 89.2344 338.352 94.0325 339.712C98.8306 341.073 104.056 337.463 105.705 331.65Z" fill="black"/>
<path d="M137.162 342.342C139.246 331.864 133.922 321.976 125.271 320.255C116.62 318.534 107.917 325.633 105.833 336.11C103.749 346.588 109.073 356.476 117.724 358.197C126.375 359.918 135.077 352.819 137.162 342.342Z" fill="white" stroke="black" stroke-width="2" stroke-miterlimit="10"/>
<path d="M136.535 343.193C138.183 337.38 135.63 331.565 130.831 330.204C126.033 328.844 120.808 332.454 119.159 338.267C117.511 344.08 120.065 349.895 124.863 351.255C129.661 352.616 134.887 349.006 136.535 343.193Z" fill="black"/>
</g>
<path d="M131.714 508.608C131.633 508.509 131.598 508.384 131.589 508.258L130.674 497.416C130.674 497.138 130.898 496.914 131.176 496.914H133.301C133.588 496.914 133.813 497.156 133.804 497.434C133.768 498.179 133.804 497.945 134.135 497.676C134.951 496.977 135.812 496.762 137.032 496.762C138.251 496.762 139.166 497.129 139.955 497.856C140.726 498.582 141.121 499.524 141.121 500.68C141.121 502.456 140.574 503.81 139.301 504.886C138.359 505.693 137.373 506.007 136.144 506.007C134.996 506.007 134.422 505.666 134.422 505.666C134.297 505.577 134.198 505.478 134.198 505.299C134.225 505.057 134.467 505.021 134.898 504.994C135.956 504.922 136.754 504.868 137.516 504.043C138.242 503.254 138.61 502.178 138.61 500.815C138.61 499.954 138.395 499.291 137.965 498.815C137.543 498.34 136.969 498.107 136.252 498.107C135.534 498.107 134.817 498.367 134.315 498.941C133.553 499.811 133.499 500.976 133.427 501.963L132.925 508.249C132.853 508.922 132.055 509.047 131.723 508.626L131.714 508.608Z" fill="white"/>
<path d="M169.539 508.608C169.458 508.509 169.422 508.384 169.413 508.258L168.499 497.416C168.499 497.138 168.723 496.914 169.001 496.914H171.126C171.413 496.914 171.637 497.156 171.628 497.434C171.592 498.179 171.628 497.945 171.96 497.676C172.776 496.977 173.637 496.762 174.856 496.762C176.076 496.762 176.991 497.129 177.78 497.856C178.551 498.582 178.946 499.524 178.946 500.68C178.946 502.456 178.399 503.81 177.125 504.886C176.184 505.693 175.197 506.007 173.969 506.007C172.821 506.007 172.247 505.666 172.247 505.666C172.121 505.577 172.023 505.478 172.023 505.299C172.05 505.057 172.292 505.021 172.722 504.994C173.78 504.922 174.578 504.868 175.341 504.043C176.067 503.254 176.435 502.178 176.435 500.815C176.435 499.954 176.22 499.291 175.789 498.815C175.368 498.34 174.794 498.107 174.076 498.107C173.359 498.107 172.642 498.367 172.139 498.941C171.377 499.811 171.323 500.976 171.252 501.963L170.749 508.249C170.678 508.922 169.88 509.047 169.548 508.626L169.539 508.608Z" fill="white"/>
<path d="M181.349 497.048L180.811 497.972C180.757 498.062 180.659 498.125 180.551 498.125H179.484C179.26 498.125 179.116 498.376 179.224 498.573L179.762 499.497C179.816 499.586 179.816 499.703 179.762 499.793L179.224 500.716C179.107 500.913 179.251 501.165 179.484 501.165H180.587C180.65 501.165 180.703 501.191 180.748 501.227C180.775 501.254 180.793 501.29 180.793 501.326L181.259 508.509C181.259 508.617 181.322 508.868 181.591 508.868C181.313 508.868 181.86 508.868 181.591 508.868C181.869 508.868 181.941 508.625 181.941 508.509L182.407 501.326C182.407 501.326 182.425 501.254 182.452 501.227C182.497 501.183 182.551 501.165 182.614 501.165H183.717C183.941 501.165 184.084 500.913 183.977 500.716L183.439 499.793C183.385 499.703 183.385 499.586 183.439 499.497L183.977 498.573C184.093 498.376 183.95 498.125 183.717 498.125H182.649C182.542 498.125 182.443 498.071 182.389 497.972L181.851 497.048C181.735 496.851 181.448 496.851 181.34 497.048H181.349Z" fill="white"/>
<path d="M163.046 508.868C161.657 508.868 160.554 508.446 159.72 507.603C159.038 506.913 158.697 506.025 158.697 504.958C158.697 503.613 159.226 502.429 160.293 501.425C161.334 500.447 162.643 499.954 164.23 499.954C165.252 499.954 166.158 500.214 166.938 500.734C167.315 500.985 167.279 501.55 166.876 501.747L166.248 502.061C165.988 502.187 165.683 502.115 165.513 501.882C165.154 501.38 164.679 501.129 164.096 501.129C163.351 501.129 162.715 501.434 162.195 502.052C161.952 502.339 161.755 502.653 161.603 503.003C161.432 503.388 161.719 503.828 162.141 503.828H164.786C165.109 503.828 165.369 504.088 165.369 504.411C165.369 504.734 165.109 504.994 164.786 504.994H161.845C161.486 504.994 161.208 505.307 161.262 505.666C161.334 506.141 161.495 506.554 161.746 506.904C162.114 507.433 162.598 507.693 163.19 507.693C163.934 507.693 164.571 507.388 165.091 506.769C165.279 506.545 165.45 506.294 165.584 506.025C165.746 505.711 166.14 505.603 166.427 505.801L167.118 506.258C167.423 506.455 167.476 506.886 167.225 507.146C167.145 507.226 167.064 507.316 166.974 507.397C165.952 508.374 164.643 508.868 163.038 508.868H163.046Z" fill="white"/>
<path d="M149.873 501.218C149.03 500.375 147.927 499.954 146.546 499.954C144.968 499.954 143.659 500.447 142.618 501.425C141.56 502.438 141.022 503.613 141.022 504.958C141.022 506.025 141.363 506.913 142.044 507.603C142.887 508.446 143.99 508.868 145.362 508.868C146.941 508.868 148.25 508.374 149.29 507.397C150.348 506.384 150.886 505.209 150.886 503.864C150.886 502.797 150.546 501.909 149.864 501.218H149.873ZM147.416 506.769C146.896 507.388 146.259 507.899 145.515 507.899C144.923 507.899 144.259 507.487 143.981 506.904C143.676 506.258 143.533 505.756 143.533 504.985C143.533 503.792 143.856 502.806 144.501 502.043C145.022 501.425 145.658 500.976 146.403 500.976C146.994 500.976 147.586 501.191 147.954 501.909C148.241 502.465 148.384 503.057 148.384 503.828C148.384 505.02 148.062 506.007 147.416 506.769Z" fill="white"/>
<path d="M154.429 508.868C153.317 508.868 152.366 508.607 151.577 508.078C151.12 507.773 151.156 507.074 151.649 506.823L151.783 506.751C152.097 506.59 152.483 506.662 152.698 506.94C153.084 507.442 153.631 507.693 154.348 507.693C154.886 507.693 155.317 507.522 155.639 507.191C155.881 506.94 156.007 506.635 156.007 506.285C156.007 505.881 155.702 505.568 155.092 505.352L153.218 504.5C152.223 504.043 151.721 503.344 151.721 502.393C151.721 501.694 152.043 501.102 152.698 500.635C153.335 500.178 154.16 499.954 155.173 499.954C155.792 499.954 156.33 500.061 156.778 500.268C157.298 500.51 157.361 501.227 156.886 501.55C156.599 501.747 156.222 501.711 155.971 501.469C155.738 501.245 155.46 501.138 155.137 501.138C154.814 501.138 154.554 501.209 154.366 501.362C154.16 501.532 154.052 501.729 154.052 501.945C154.052 502.16 154.214 502.384 154.536 502.599C154.572 502.626 154.608 502.644 154.644 502.662L156.42 503.46C157.46 503.935 158.096 504.689 158.321 505.729C158.33 505.792 158.339 505.854 158.339 505.908C158.312 506.814 157.899 507.549 157.092 508.123C156.384 508.625 155.496 508.876 154.42 508.876L154.429 508.868Z" fill="white"/>
<path d="M188.012 508.868C186.622 508.868 185.519 508.446 184.685 507.603C184.003 506.913 183.663 506.025 183.663 504.958C183.663 503.613 184.192 502.429 185.25 501.425C186.281 500.447 187.59 499.954 189.178 499.954C189.994 499.954 190.729 500.115 191.393 500.447C192.02 500.761 192.002 501.658 191.384 501.963C191.034 502.133 190.612 502.052 190.37 501.756C190.021 501.335 189.581 501.129 189.043 501.129C188.299 501.129 187.662 501.434 187.142 502.052C186.496 502.815 186.173 503.792 186.173 504.994C186.173 505.765 186.353 506.401 186.703 506.913C187.07 507.442 187.554 507.702 188.146 507.702C188.9 507.702 189.527 507.397 190.047 506.778C190.191 506.608 190.316 506.428 190.424 506.24C190.666 505.819 191.213 505.693 191.617 505.962L191.814 506.088C192.262 506.384 192.334 507.02 191.949 507.388C190.926 508.365 189.617 508.859 188.012 508.859V508.868Z" fill="white"/>
<path d="M194.038 508.016L193.374 497.91C193.374 497.434 193.509 497.183 193.975 497.183H195.284C195.76 497.183 195.903 497.443 195.903 497.91L195.383 504.967C195.383 505.568 195.562 506.088 196.71 505.783C197.419 505.595 198.127 505.03 198.486 504.348C198.827 503.685 199.087 502.895 198.88 501.093C198.827 500.636 198.934 500.268 199.401 500.268H200.728C201.212 500.268 201.221 500.672 201.203 501.156C201.14 502.653 200.898 503.765 200.486 504.483C200.279 504.841 200.037 505.164 199.741 505.46C199.392 505.819 198.665 506.402 199.051 506.716L199.831 507.352C200.459 507.854 200.1 508.868 199.293 508.868H199.526C199.338 508.868 199.149 508.805 198.997 508.688L197.212 507.29C197.033 507.101 196.513 507.128 196.513 507.128C196.513 507.128 195.975 507.164 195.894 507.173C195.473 507.245 195.168 507.594 195.168 508.016C195.168 508.491 195.141 508.949 194.666 508.949H194.576C194.101 508.949 194.029 508.491 194.029 508.016H194.038Z" fill="white"/>
<path d="M206.144 508.868C204.754 508.868 203.651 508.446 202.817 507.603C202.135 506.913 201.795 506.025 201.795 504.958C201.795 503.613 202.324 502.429 203.391 501.425C204.431 500.447 205.74 499.954 207.328 499.954C208.35 499.954 209.256 500.214 210.036 500.734C210.412 500.985 210.377 501.55 209.973 501.747L209.345 502.061C209.085 502.187 208.78 502.115 208.61 501.882C208.251 501.38 207.776 501.129 207.193 501.129C206.449 501.129 205.812 501.434 205.292 502.052C205.05 502.339 204.853 502.653 204.7 503.003C204.53 503.388 204.817 503.828 205.238 503.828H207.884C208.206 503.828 208.466 504.088 208.466 504.411C208.466 504.734 208.206 504.994 207.884 504.994H204.942C204.584 504.994 204.306 505.307 204.359 505.666C204.431 506.141 204.593 506.554 204.844 506.904C205.211 507.433 205.696 507.693 206.287 507.693C207.032 507.693 207.668 507.388 208.188 506.769C208.377 506.545 208.547 506.294 208.682 506.025C208.843 505.711 209.238 505.603 209.525 505.801L210.215 506.258C210.52 506.455 210.574 506.886 210.323 507.146C210.242 507.226 210.161 507.316 210.072 507.397C209.049 508.374 207.74 508.868 206.135 508.868H206.144Z" fill="white"/>
<path d="M211.901 508.375L211.157 500.6C211.157 500.367 211.345 500.187 211.57 500.187H213.085C213.309 500.187 213.498 500.376 213.498 500.6C213.498 500.95 213.901 501.138 214.17 500.923C214.914 500.331 215.784 500.026 216.789 500.026C217.641 500.026 218.331 500.277 218.842 500.779C219.013 500.941 219.156 501.129 219.264 501.335C219.371 501.541 219.309 501.792 219.111 501.9L217.82 502.626C217.578 502.761 217.273 502.626 217.21 502.357C217.165 502.151 217.103 501.981 217.004 501.837C216.78 501.506 216.466 501.344 216.071 501.344C215.318 501.344 214.224 501.694 213.704 502.402C213.255 503.003 213.031 503.72 213.031 504.572L212.897 508.366C212.897 508.599 212.708 508.778 212.484 508.778H212.296C212.072 508.778 211.883 508.59 211.883 508.366L211.901 508.375Z" fill="white"/>
</svg>
