<svg width="390" height="110" viewBox="0 0 390 110" fill="none" xmlns="http://www.w3.org/2000/svg">
<rect opacity="0.1" width="390" height="110" transform="matrix(-1 0 0 1 390 0)" fill="url(#paint0_linear_3191_10443)"/>
<mask id="mask0_3191_10443" style="mask-type:alpha" maskUnits="userSpaceOnUse" x="0" y="0" width="390" height="110">
<rect width="390" height="110" transform="matrix(-1 0 0 1 390 0)" fill="white"/>
</mask>
<g mask="url(#mask0_3191_10443)">
<path d="M348.06 5.70782C348.06 5.70782 347.764 4.2564 345.945 3.69088C344.126 3.12536 342.939 4.11555 342.939 4.11555L328.91 14.7873C328.039 15.45 328.295 16.7375 329.367 17.0707L350.377 23.6034C351.446 23.9358 352.497 23.0544 352.238 22.0407L348.06 5.70782Z" fill="#FFDA00"/>
<path d="M46.006 -3.99997C46.006 -3.99997 44.6751 -4.81614 42.9695 -4.01294C41.2625 -3.20749 41.1969 -1.73641 41.1969 -1.73641L39.6589 14.9628C39.5638 15.9984 40.739 16.7288 41.7453 16.2572L51.6074 11.6133L61.4696 6.96942C62.4734 6.49637 62.5242 5.18865 61.5574 4.65219L46.006 -3.99997Z" fill="#5B2EE0"/>
<path d="M-8.9533 46.2011C-8.9533 46.2011 -10.0797 47.25 -9.55168 48.9533C-9.02367 50.6565 -7.46665 50.9967 -7.46665 50.9967L10.0139 55.5984C11.0989 55.8837 12.102 54.9584 11.7909 53.9549L5.69156 34.2795C5.38125 33.2785 3.99895 32.9806 3.24161 33.7525L-8.95489 46.1959L-8.9533 46.2011Z" fill="#FF6840"/>
<path d="M38.0951 116.133C38.0951 116.133 36.5034 116.005 35.7127 114.395C34.9223 112.783 35.8649 111.595 35.8649 111.595L45.9439 97.6554C46.5692 96.791 47.9813 96.8965 48.4493 97.8445L53.0218 107.152L57.5942 116.459C58.0594 117.407 57.2157 118.458 56.0975 118.321L38.0951 116.133Z" fill="#3185FF"/>
<path d="M367.094 45.027C367.094 45.027 365.647 44.4002 364.088 45.4261C362.528 46.4544 362.697 47.9184 362.697 47.9184L363.835 64.6449C363.905 65.6822 365.184 66.2452 366.104 65.6422L375.12 59.7108L384.136 53.7794C385.053 53.1753 384.895 51.8749 383.854 51.4754L367.094 45.027Z" fill="#7DEC52"/>
<path d="M326.25 94.5695C326.25 94.5695 325.496 93.2689 323.582 93.231C321.665 93.1944 320.853 94.4615 320.853 94.4615L310.933 108.498C310.318 109.369 310.979 110.526 312.107 110.55L323.175 110.77L334.244 110.99C335.371 111.012 336.086 109.882 335.51 108.987L326.25 94.5695Z" fill="#FF3EFA"/>
</g>
<defs>
<linearGradient id="paint0_linear_3191_10443" x1="390" y1="-7.3266e-06" x2="329.865" y2="202.808" gradientUnits="userSpaceOnUse">
<stop stop-color="#FFEF8F"/>
<stop offset="0.255208" stop-color="#81F554"/>
<stop offset="0.442708" stop-color="#3185FF"/>
<stop offset="0.614583" stop-color="#8662F3"/>
<stop offset="0.802083" stop-color="#FF3EFA"/>
<stop offset="1" stop-color="#FF7E5C"/>
</linearGradient>
</defs>
</svg>
